<mxfile host="app.diagrams.net" modified="2023-10-18T01:41:24.955Z" agent="Mozilla/5.0 (Macintosh; Intel Mac OS X 10.15; rv:109.0) Gecko/20100101 Firefox/118.0" etag="n8Tnp4Mz02S-bvRBJcr5" version="21.6.8" type="device">
  <diagram id="AAi8AlQd40vCVn8v8jhC" name="Page-1">
    <mxGraphModel dx="1505" dy="954" grid="1" gridSize="10" guides="1" tooltips="1" connect="1" arrows="1" fold="1" page="1" pageScale="1" pageWidth="1100" pageHeight="850" math="0" shadow="0">
      <root>
        <mxCell id="0" />
        <mxCell id="1" parent="0" />
        <mxCell id="1ntXn3Z_H9m2y3EPTd-5-13" value="&lt;b&gt;space&lt;/b&gt;" style="ellipse;shape=cloud;whiteSpace=wrap;html=1;fillColor=#E6D0DE;" parent="1" vertex="1">
          <mxGeometry x="440" y="180" width="120" height="460" as="geometry" />
        </mxCell>
        <mxCell id="1ntXn3Z_H9m2y3EPTd-5-1" value="MUX abc1" style="rounded=0;whiteSpace=wrap;html=1;" parent="1" vertex="1">
          <mxGeometry x="300" y="280" width="120" height="60" as="geometry" />
        </mxCell>
        <mxCell id="1ntXn3Z_H9m2y3EPTd-5-3" value="MUX abc2" style="rounded=0;whiteSpace=wrap;html=1;" parent="1" vertex="1">
          <mxGeometry x="300" y="395" width="120" height="60" as="geometry" />
        </mxCell>
        <mxCell id="1ntXn3Z_H9m2y3EPTd-5-4" value="&lt;div&gt;MUX abc3&lt;/div&gt;&lt;div&gt;&lt;br&gt;&lt;/div&gt;" style="rounded=0;whiteSpace=wrap;html=1;" parent="1" vertex="1">
          <mxGeometry x="300" y="505" width="120" height="60" as="geometry" />
        </mxCell>
        <mxCell id="1ntXn3Z_H9m2y3EPTd-5-6" value="Channel abc1" style="rounded=0;whiteSpace=wrap;html=1;" parent="1" vertex="1">
          <mxGeometry x="580" y="285" width="120" height="60" as="geometry" />
        </mxCell>
        <mxCell id="1ntXn3Z_H9m2y3EPTd-5-7" value="Issuer ABC" style="whiteSpace=wrap;html=1;" parent="1" vertex="1">
          <mxGeometry x="780" y="395" width="120" height="60" as="geometry" />
        </mxCell>
        <mxCell id="1ntXn3Z_H9m2y3EPTd-5-8" value="Channel abc2" style="rounded=0;whiteSpace=wrap;html=1;" parent="1" vertex="1">
          <mxGeometry x="580" y="395" width="120" height="60" as="geometry" />
        </mxCell>
        <mxCell id="1ntXn3Z_H9m2y3EPTd-5-9" value="Channel abc3" style="rounded=0;whiteSpace=wrap;html=1;" parent="1" vertex="1">
          <mxGeometry x="580" y="505" width="120" height="60" as="geometry" />
        </mxCell>
        <mxCell id="1ntXn3Z_H9m2y3EPTd-5-10" value="" style="endArrow=classic;html=1;rounded=0;exitX=1;exitY=0.5;exitDx=0;exitDy=0;entryX=0;entryY=0.5;entryDx=0;entryDy=0;" parent="1" source="1ntXn3Z_H9m2y3EPTd-5-6" target="1ntXn3Z_H9m2y3EPTd-5-7" edge="1">
          <mxGeometry width="50" height="50" relative="1" as="geometry">
            <mxPoint x="450" y="780" as="sourcePoint" />
            <mxPoint x="500" y="730" as="targetPoint" />
          </mxGeometry>
        </mxCell>
        <mxCell id="1ntXn3Z_H9m2y3EPTd-5-11" value="" style="endArrow=classic;html=1;rounded=0;exitX=1;exitY=0.5;exitDx=0;exitDy=0;entryX=0;entryY=0.5;entryDx=0;entryDy=0;" parent="1" source="1ntXn3Z_H9m2y3EPTd-5-8" target="1ntXn3Z_H9m2y3EPTd-5-7" edge="1">
          <mxGeometry width="50" height="50" relative="1" as="geometry">
            <mxPoint x="710" y="340" as="sourcePoint" />
            <mxPoint x="880" y="450" as="targetPoint" />
          </mxGeometry>
        </mxCell>
        <mxCell id="1ntXn3Z_H9m2y3EPTd-5-12" value="" style="endArrow=classic;html=1;rounded=0;entryX=0;entryY=0.5;entryDx=0;entryDy=0;exitX=1;exitY=0.5;exitDx=0;exitDy=0;" parent="1" source="1ntXn3Z_H9m2y3EPTd-5-9" edge="1" target="1ntXn3Z_H9m2y3EPTd-5-7">
          <mxGeometry width="50" height="50" relative="1" as="geometry">
            <mxPoint x="730" y="550" as="sourcePoint" />
            <mxPoint x="870" y="440" as="targetPoint" />
          </mxGeometry>
        </mxCell>
        <mxCell id="1ntXn3Z_H9m2y3EPTd-5-17" value="out" style="text;html=1;align=center;verticalAlign=middle;resizable=0;points=[];autosize=1;strokeColor=none;fillColor=none;" parent="1" vertex="1">
          <mxGeometry x="420" y="260" width="40" height="30" as="geometry" />
        </mxCell>
        <mxCell id="1ntXn3Z_H9m2y3EPTd-5-19" value="" style="group" parent="1" vertex="1" connectable="0">
          <mxGeometry x="440" y="262.5" width="140" height="35" as="geometry" />
        </mxCell>
        <mxCell id="1ntXn3Z_H9m2y3EPTd-5-16" value="" style="html=1;shadow=0;dashed=0;align=center;verticalAlign=middle;shape=mxgraph.arrows2.arrow;dy=0;dx=10;notch=0;" parent="1ntXn3Z_H9m2y3EPTd-5-19" vertex="1">
          <mxGeometry y="25" width="140" height="10" as="geometry" />
        </mxCell>
        <mxCell id="1ntXn3Z_H9m2y3EPTd-5-18" value="in" style="text;html=1;align=center;verticalAlign=middle;resizable=0;points=[];autosize=1;strokeColor=none;fillColor=none;" parent="1ntXn3Z_H9m2y3EPTd-5-19" vertex="1">
          <mxGeometry x="110" width="30" height="30" as="geometry" />
        </mxCell>
        <mxCell id="1ntXn3Z_H9m2y3EPTd-5-26" value="out" style="text;html=1;align=center;verticalAlign=middle;resizable=0;points=[];autosize=1;strokeColor=none;fillColor=none;" parent="1" vertex="1">
          <mxGeometry x="420" y="380" width="40" height="30" as="geometry" />
        </mxCell>
        <mxCell id="1ntXn3Z_H9m2y3EPTd-5-27" value="" style="html=1;shadow=0;dashed=0;align=center;verticalAlign=middle;shape=mxgraph.arrows2.arrow;dy=0;dx=10;notch=0;" parent="1" vertex="1">
          <mxGeometry x="430" y="405" width="140" height="10" as="geometry" />
        </mxCell>
        <mxCell id="1ntXn3Z_H9m2y3EPTd-5-28" value="in" style="text;html=1;align=center;verticalAlign=middle;resizable=0;points=[];autosize=1;strokeColor=none;fillColor=none;" parent="1" vertex="1">
          <mxGeometry x="550" y="375" width="30" height="30" as="geometry" />
        </mxCell>
        <mxCell id="1ntXn3Z_H9m2y3EPTd-5-29" value="out" style="text;html=1;align=center;verticalAlign=middle;resizable=0;points=[];autosize=1;strokeColor=none;fillColor=none;" parent="1" vertex="1">
          <mxGeometry x="430" y="485" width="40" height="30" as="geometry" />
        </mxCell>
        <mxCell id="1ntXn3Z_H9m2y3EPTd-5-30" value="" style="html=1;shadow=0;dashed=0;align=center;verticalAlign=middle;shape=mxgraph.arrows2.arrow;dy=0;dx=10;notch=0;" parent="1" vertex="1">
          <mxGeometry x="440" y="510" width="140" height="10" as="geometry" />
        </mxCell>
        <mxCell id="1ntXn3Z_H9m2y3EPTd-5-31" value="in" style="text;html=1;align=center;verticalAlign=middle;resizable=0;points=[];autosize=1;strokeColor=none;fillColor=none;" parent="1" vertex="1">
          <mxGeometry x="550" y="485" width="30" height="30" as="geometry" />
        </mxCell>
        <mxCell id="1ntXn3Z_H9m2y3EPTd-5-32" value="" style="group;rotation=-180;" parent="1" vertex="1" connectable="0">
          <mxGeometry x="430" y="325" width="160" height="40" as="geometry" />
        </mxCell>
        <mxCell id="1ntXn3Z_H9m2y3EPTd-5-33" value="" style="html=1;shadow=0;dashed=0;align=center;verticalAlign=middle;shape=mxgraph.arrows2.arrow;dy=0;dx=10;notch=0;rotation=-180;" parent="1ntXn3Z_H9m2y3EPTd-5-32" vertex="1">
          <mxGeometry width="140" height="10" as="geometry" />
        </mxCell>
        <mxCell id="1ntXn3Z_H9m2y3EPTd-5-37" value="in" style="text;html=1;align=center;verticalAlign=middle;resizable=0;points=[];autosize=1;strokeColor=none;fillColor=none;" parent="1ntXn3Z_H9m2y3EPTd-5-32" vertex="1">
          <mxGeometry x="-10" width="30" height="30" as="geometry" />
        </mxCell>
        <mxCell id="1ntXn3Z_H9m2y3EPTd-5-36" value="out" style="text;html=1;align=center;verticalAlign=middle;resizable=0;points=[];autosize=1;strokeColor=none;fillColor=none;" parent="1ntXn3Z_H9m2y3EPTd-5-32" vertex="1">
          <mxGeometry x="120" width="40" height="30" as="geometry" />
        </mxCell>
        <mxCell id="1ntXn3Z_H9m2y3EPTd-5-38" value="" style="html=1;shadow=0;dashed=0;align=center;verticalAlign=middle;shape=mxgraph.arrows2.arrow;dy=0;dx=10;notch=0;rotation=-180;" parent="1" vertex="1">
          <mxGeometry x="425" y="435" width="140" height="10" as="geometry" />
        </mxCell>
        <mxCell id="1ntXn3Z_H9m2y3EPTd-5-39" value="in" style="text;html=1;align=center;verticalAlign=middle;resizable=0;points=[];autosize=1;strokeColor=none;fillColor=none;" parent="1" vertex="1">
          <mxGeometry x="415" y="435" width="30" height="30" as="geometry" />
        </mxCell>
        <mxCell id="1ntXn3Z_H9m2y3EPTd-5-40" value="out" style="text;html=1;align=center;verticalAlign=middle;resizable=0;points=[];autosize=1;strokeColor=none;fillColor=none;" parent="1" vertex="1">
          <mxGeometry x="545" y="435" width="40" height="30" as="geometry" />
        </mxCell>
        <mxCell id="1ntXn3Z_H9m2y3EPTd-5-41" value="" style="html=1;shadow=0;dashed=0;align=center;verticalAlign=middle;shape=mxgraph.arrows2.arrow;dy=0;dx=10;notch=0;rotation=-180;" parent="1" vertex="1">
          <mxGeometry x="430" y="550" width="140" height="10" as="geometry" />
        </mxCell>
        <mxCell id="1ntXn3Z_H9m2y3EPTd-5-42" value="in" style="text;html=1;align=center;verticalAlign=middle;resizable=0;points=[];autosize=1;strokeColor=none;fillColor=none;" parent="1" vertex="1">
          <mxGeometry x="420" y="550" width="30" height="30" as="geometry" />
        </mxCell>
        <mxCell id="1ntXn3Z_H9m2y3EPTd-5-43" value="out" style="text;html=1;align=center;verticalAlign=middle;resizable=0;points=[];autosize=1;strokeColor=none;fillColor=none;" parent="1" vertex="1">
          <mxGeometry x="550" y="550" width="40" height="30" as="geometry" />
        </mxCell>
        <mxCell id="1ntXn3Z_H9m2y3EPTd-5-44" value="TCP" style="text;html=1;align=center;verticalAlign=middle;resizable=0;points=[];autosize=1;strokeColor=none;fillColor=none;" parent="1" vertex="1">
          <mxGeometry x="760" y="273" width="50" height="30" as="geometry" />
        </mxCell>
        <mxCell id="1ntXn3Z_H9m2y3EPTd-5-46" value="&lt;div&gt;MUXPool&lt;/div&gt;&lt;div&gt;&lt;b&gt;abc&lt;/b&gt;&lt;br&gt;&lt;/div&gt;" style="whiteSpace=wrap;html=1;aspect=fixed;fillColor=#FFFFFF;" parent="1" vertex="1">
          <mxGeometry x="74.5" y="380" width="90" height="90" as="geometry" />
        </mxCell>
        <mxCell id="1ntXn3Z_H9m2y3EPTd-5-67" value="" style="endArrow=classic;html=1;rounded=0;exitX=1;exitY=0.5;exitDx=0;exitDy=0;entryX=0;entryY=0.5;entryDx=0;entryDy=0;" parent="1" source="1ntXn3Z_H9m2y3EPTd-5-46" target="1ntXn3Z_H9m2y3EPTd-5-3" edge="1">
          <mxGeometry width="50" height="50" relative="1" as="geometry">
            <mxPoint x="490" y="930" as="sourcePoint" />
            <mxPoint x="540" y="880" as="targetPoint" />
          </mxGeometry>
        </mxCell>
        <mxCell id="1ntXn3Z_H9m2y3EPTd-5-76" value="request()" style="text;html=1;align=center;verticalAlign=middle;resizable=0;points=[];autosize=1;strokeColor=none;fillColor=none;" parent="1" vertex="1">
          <mxGeometry x="200" y="395" width="70" height="30" as="geometry" />
        </mxCell>
        <mxCell id="1ntXn3Z_H9m2y3EPTd-5-77" value="" style="endArrow=classic;html=1;rounded=0;exitX=1;exitY=0.5;exitDx=0;exitDy=0;entryX=0;entryY=0.5;entryDx=0;entryDy=0;" parent="1" source="1ntXn3Z_H9m2y3EPTd-5-46" target="1ntXn3Z_H9m2y3EPTd-5-4" edge="1">
          <mxGeometry width="50" height="50" relative="1" as="geometry">
            <mxPoint x="180" y="610" as="sourcePoint" />
            <mxPoint x="340" y="610" as="targetPoint" />
          </mxGeometry>
        </mxCell>
        <mxCell id="1ntXn3Z_H9m2y3EPTd-5-78" value="request()" style="text;html=1;align=center;verticalAlign=middle;resizable=0;points=[];autosize=1;strokeColor=none;fillColor=none;rotation=35;" parent="1" vertex="1">
          <mxGeometry x="190" y="470" width="70" height="30" as="geometry" />
        </mxCell>
        <mxCell id="1ntXn3Z_H9m2y3EPTd-5-82" value="&lt;font style=&quot;font-size: 14px;&quot;&gt;SelectDestination&lt;/font&gt;" style="rounded=0;whiteSpace=wrap;html=1;fillColor=#FFFFFF;" parent="1" vertex="1">
          <mxGeometry x="59.5" y="140" width="120" height="60" as="geometry" />
        </mxCell>
        <mxCell id="1ntXn3Z_H9m2y3EPTd-5-83" value="&lt;font style=&quot;font-size: 14px;&quot;&gt;QueryHost&lt;/font&gt;" style="rounded=0;whiteSpace=wrap;html=1;fillColor=#FFFFFF;" parent="1" vertex="1">
          <mxGeometry x="65" y="250" width="109" height="60" as="geometry" />
        </mxCell>
        <mxCell id="1ntXn3Z_H9m2y3EPTd-5-84" value="" style="endArrow=classic;html=1;rounded=0;fontSize=14;entryX=0.5;entryY=0;entryDx=0;entryDy=0;exitX=0.5;exitY=1;exitDx=0;exitDy=0;" parent="1" target="1ntXn3Z_H9m2y3EPTd-5-46" edge="1" source="1ntXn3Z_H9m2y3EPTd-5-83">
          <mxGeometry width="50" height="50" relative="1" as="geometry">
            <mxPoint x="125" y="380" as="sourcePoint" />
            <mxPoint x="570" y="540" as="targetPoint" />
          </mxGeometry>
        </mxCell>
        <mxCell id="1ntXn3Z_H9m2y3EPTd-5-85" value="request()" style="text;html=1;align=center;verticalAlign=middle;resizable=0;points=[];autosize=1;strokeColor=none;fillColor=none;fontSize=14;" parent="1" vertex="1">
          <mxGeometry x="50" y="330" width="80" height="30" as="geometry" />
        </mxCell>
        <mxCell id="1ntXn3Z_H9m2y3EPTd-5-86" value="" style="endArrow=none;dashed=1;html=1;dashPattern=1 3;strokeWidth=2;rounded=0;fontSize=14;exitX=0.5;exitY=0;exitDx=0;exitDy=0;entryX=0.5;entryY=1;entryDx=0;entryDy=0;" parent="1" source="1ntXn3Z_H9m2y3EPTd-5-83" edge="1" target="1ntXn3Z_H9m2y3EPTd-5-82">
          <mxGeometry width="50" height="50" relative="1" as="geometry">
            <mxPoint x="120" y="309" as="sourcePoint" />
            <mxPoint x="160" y="220" as="targetPoint" />
          </mxGeometry>
        </mxCell>
        <mxCell id="1ntXn3Z_H9m2y3EPTd-5-88" value="&lt;div&gt;&lt;font style=&quot;font-size: 12px;&quot; color=&quot;#006633&quot;&gt;Choose a mux name as &quot;DESTINATION&quot;&lt;/font&gt;&lt;/div&gt;&lt;div&gt;&lt;font size=&quot;3&quot; color=&quot;#006633&quot;&gt;&amp;nbsp;(for example MUX &quot;abc&quot;)&lt;/font&gt;&lt;/div&gt;" style="text;html=1;align=center;verticalAlign=middle;resizable=0;points=[];autosize=1;strokeColor=none;fillColor=none;fontSize=14;" parent="1" vertex="1">
          <mxGeometry x="185" y="140" width="240" height="50" as="geometry" />
        </mxCell>
        <mxCell id="1ntXn3Z_H9m2y3EPTd-5-89" value="&lt;font style=&quot;font-size: 12px;&quot;&gt;Use the &quot;DESTINATION&quot; name published in the &lt;b&gt;context&lt;/b&gt; to get a ref to the MUX and call its request() method&amp;nbsp; (sync/async)&lt;/font&gt;" style="text;whiteSpace=wrap;html=1;fontSize=14;fontColor=#006633;" parent="1" vertex="1">
          <mxGeometry x="179.5" y="213" width="290" height="60" as="geometry" />
        </mxCell>
        <mxCell id="1ntXn3Z_H9m2y3EPTd-5-90" value="" style="endArrow=none;dashed=1;html=1;rounded=0;fontSize=14;fontColor=#006633;strokeWidth=3;" parent="1" edge="1">
          <mxGeometry width="50" height="50" relative="1" as="geometry">
            <mxPoint x="740" y="630" as="sourcePoint" />
            <mxPoint x="740" y="115" as="targetPoint" />
          </mxGeometry>
        </mxCell>
        <mxCell id="1ntXn3Z_H9m2y3EPTd-5-47" value="" style="endArrow=classic;html=1;rounded=0;exitX=1;exitY=0.5;exitDx=0;exitDy=0;entryX=0;entryY=0.5;entryDx=0;entryDy=0;" parent="1" source="1ntXn3Z_H9m2y3EPTd-5-46" target="1ntXn3Z_H9m2y3EPTd-5-1" edge="1">
          <mxGeometry width="50" height="50" relative="1" as="geometry">
            <mxPoint x="574.1891108675446" y="857.0196189432335" as="sourcePoint" />
            <mxPoint x="609.1891108675446" y="795.0196189432335" as="targetPoint" />
          </mxGeometry>
        </mxCell>
        <mxCell id="1ntXn3Z_H9m2y3EPTd-5-48" value="request()" style="text;html=1;align=center;verticalAlign=middle;resizable=1;points=[];autosize=1;strokeColor=none;fillColor=none;rotation=-45;movable=1;rotatable=1;deletable=1;editable=1;locked=0;connectable=1;" parent="1" vertex="1">
          <mxGeometry x="179.49911086754466" y="349.9996189432335" width="70" height="30" as="geometry" />
        </mxCell>
        <mxCell id="2x0uK-FGoutuMQk38w7l-3" value="" style="endArrow=none;dashed=1;html=1;dashPattern=1 3;strokeWidth=2;rounded=0;fontSize=14;exitX=0.5;exitY=0;exitDx=0;exitDy=0;" edge="1" parent="1" source="1ntXn3Z_H9m2y3EPTd-5-82">
          <mxGeometry width="50" height="50" relative="1" as="geometry">
            <mxPoint x="129" y="260" as="sourcePoint" />
            <mxPoint x="120" y="110" as="targetPoint" />
          </mxGeometry>
        </mxCell>
      </root>
    </mxGraphModel>
  </diagram>
</mxfile>
